<svg xmlns="http://www.w3.org/2000/svg" width="104" height="78" viewBox="0 0 104 78">
    <g fill="#E6332A" fill-rule="evenodd">
        <path d="M85.877 3.236l.327-.004v-.027l4.843.065L92.252.326l-7.006.08c-.977.097-1.832.228-2.482.742-.827.654-1.247 1.539-1.247 2.633 0 .606.112 1.138.33 1.578.224.448.518.796.873 1.035.333.223.705.405 1.111.547.246.086.504.166.767.234l.043.011h.125c.174.046.338.084.497.114.374.069.716.14 1.018.215.268.066.487.156.652.27.105.074.153.16.153.285 0 .205-.046.345-.133.414-.071.059-.224.129-.555.133l-.325.002v.026l-4.76-.078-1.734 2.963 7.484.034 1.245-.174c.47-.238.553-.171 1.205-.686.825-.655 1.245-1.54 1.245-2.634 0-.606-.112-1.136-.33-1.579-.222-.446-.517-.794-.874-1.033a4.847 4.847 0 0 0-1.11-.547 10.69 10.69 0 0 0-.767-.236l-.042-.01h-.126a8.908 8.908 0 0 0-.495-.113 19.534 19.534 0 0 1-1.02-.215 1.974 1.974 0 0 1-.65-.27.318.318 0 0 1-.153-.286c0-.203.044-.344.13-.414.072-.057.227-.127.556-.131M77.776 11.227h-2.908l-2.125-5.554h-.1l-.994 5.554H68.74L70.667.295h3.034l2.216 5.408h.102L77.053.295H80zM64.296 11.227L65.761.295h2.98l-1.562 10.932zM58.967 7.22l-.174-3.558h-.15l-1.641 3.557h1.965zm.449 4.007l-.18-1.617H55.77l-.815 1.617h-3.102L57.885.295h3.053l1.58 10.932h-3.102zM45.959 7.325l.529-2.574h5.42l-1.463 6.813h-2.523l.264-1.278-.066-.046c-.544.507-1.086.897-1.63 1.168-.542.274-1.24.41-2.087.41-1.462 0-2.605-.545-3.436-1.637-.835-1.09-1.102-2.49-.788-4.195.195-1.081.655-2.07 1.386-2.969a7.81 7.81 0 0 1 2.65-2.105 7.206 7.206 0 0 1 3.2-.76c1.323 0 2.416.343 3.278 1.026.857.686 1.305 1.619 1.348 2.798h-3.12c-.242-.763-.926-1.145-2.053-1.145-.813 0-1.564.317-2.254.951-.687.637-1.109 1.37-1.262 2.204-.162.832-.024 1.557.412 2.17.435.616 1.052.924 1.85.924.674 0 1.263-.164 1.775-.49.51-.329.88-.75 1.109-1.265h-2.539zM33.835 2.76l-.321 1.733h1.597c.188 0 .37-.095.555-.284.183-.19.294-.386.332-.59a.839.839 0 0 0-.105-.583c-.109-.184-.257-.277-.444-.277h-1.614zM35.7 7.656c.066-.302.025-.56-.122-.78a.714.714 0 0 0-.63-.328h-1.814l-.408 2.217h1.803c.26 0 .508-.116.742-.345a1.43 1.43 0 0 0 .429-.764zm3.005.292c-.194 1-.658 1.797-1.395 2.39-.735.592-1.595.888-2.585.888h-5.39L31.251.295h5.04c1.013 0 1.773.265 2.274.795.5.53.656 1.256.468 2.179-.152.778-.746 1.453-1.78 2.026l-.006.06c1.215.534 1.698 1.397 1.456 2.594zM23.003 8.546h5.248l-.532 2.681h-8.163L21.49.295h8.435l-.547 2.682h-5.335L23.76 4.45h4.29l-.525 2.624h-4.257zM15.963.166L14.79 5.554h-.106L12.586 0h-.023l-.071.381-.015.028.086-.409L8.67 5.128 9.715.166H6.654l-2.21 11.061h2.964l.01-.002 3.966-5.548h.189l1.881 5.55h2.96L18.964.167z"/>
        <path d="M103.837 0L94.71.085s1.655 8.113-4.898 16.835L55.042 65.19l-5.15-7.1 11.337-15.897c2.556-3.421.111-8.29-4.166-8.29h-18.53l5.27 8.665h5.492l-5.577 7.415-12.634-17.306c-2.025-2.784-.292-6.4 3.158-6.356h38.59l5.898-8.161-47.914.033c-9.15 0-14.302 10.11-8.911 17.49L37.99 57.789l-5.485 7.423S11.822 36.366 11.75 36.268c-6.553-8.721-1.4-18.074-1.4-18.074H1.493S-2.8 27.61 3.173 39.971c.022.047 17.447 24.699 25.927 36.237 1.722 2.343 5.224 2.354 6.962.024l7.645-10.241 1.606 2.3 5.781 7.969c1.642 2.287 5.034 2.326 6.727.078 0 0 31.155-43.166 42.24-58.515C105.195 10.71 103.836 0 103.836 0"/>
    </g>
</svg>
